<svg width="12" height="18" viewBox="0 0 12 18" fill="none" xmlns="http://www.w3.org/2000/svg">
<path d="M6 0C3.639 0 1.5 1.91475 1.5 4.2765C1.5 6.6375 3.4515 9.45675 6 13.5C8.5485 9.45675 10.5 6.6375 10.5 4.2765C10.5 1.91475 8.36175 0 6 0ZM6 6C5.17125 6 4.5 5.32875 4.5 4.5C4.5 3.67125 5.17125 3 6 3C6.82875 3 7.5 3.67125 7.5 4.5C7.5 5.32875 6.82875 6 6 6ZM12 15C12 16.6568 9.31425 18 6 18C2.68575 18 0 16.6568 0 15C0 13.7985 1.416 12.765 3.456 12.2858L4.3215 13.6537C4.02075 13.7047 3.717 13.755 3.438 13.8353C0.954 14.547 0.84825 15.417 3.42225 16.1617C4.98825 16.614 7.005 16.6155 8.57775 16.161C11.292 15.3758 10.9507 14.4548 8.37675 13.7858C8.15475 13.728 7.911 13.6972 7.67475 13.6575L8.54175 12.2865C10.584 12.765 12 13.7985 12 15V15Z" fill="white"/>
</svg>
