<svg width="20" height="17" viewBox="0 0 20 17" fill="none" xmlns="http://www.w3.org/2000/svg">
<path d="M6.66667 0C5.74583 0 5 0.7616 5 1.7V14.1763C4.99917 16.0574 7.08583 17 10.0042 17C12.92 17 15 16.0599 15 14.1763V1.7C15 0.7616 14.2542 0 13.3333 0H6.66667ZM10 15.3C9.54 15.3 9.16667 14.9192 9.16667 14.45C9.16667 13.9808 9.54 13.6 10 13.6C10.46 13.6 10.8333 13.9808 10.8333 14.45C10.8333 14.9192 10.46 15.3 10 15.3ZM13.3333 11.9H6.66667V3.4H13.3333V11.9ZM16.6667 5.55985C17.08 5.9806 17.3358 6.562 17.3358 7.2046C17.3367 7.84635 17.0817 8.4286 16.6692 8.8502L17.3475 9.5421C17.9333 8.9437 18.2967 8.11665 18.2967 7.20375C18.2958 6.29 17.9333 5.46465 17.3458 4.8671L16.6667 5.55985ZM17.8558 4.34775C18.5725 5.0779 19.0167 6.08685 19.0167 7.20205C19.0175 8.3181 18.5733 9.32875 17.8575 10.0606L18.5525 10.7703C19.4475 9.8566 20.0008 8.59435 20 7.20205C20 5.8089 19.4467 4.5492 18.5525 3.638L17.8558 4.34775ZM2.655 4.8671C2.0675 5.46465 1.705 6.29 1.70417 7.2029C1.70333 8.1158 2.06667 8.94285 2.65333 9.54125L3.33167 8.84935C2.91917 8.42775 2.665 7.84635 2.665 7.20375C2.665 6.56115 2.92083 5.97975 3.33333 5.559L2.655 4.8671ZM1.44917 3.63715C0.553334 4.5492 0.000834272 5.80805 9.38529e-07 7.20205C-0.000832395 8.59435 0.553334 9.85745 1.4475 10.7703L2.1425 10.0606C1.42667 9.32875 0.983334 8.3181 0.984167 7.20205C0.984167 6.08685 1.42667 5.07705 2.14417 4.34775L1.44917 3.63715Z" fill="white"/>
</svg>
