<svg width="45" height="38" viewBox="0 0 45 38" fill="none" xmlns="http://www.w3.org/2000/svg">
<path d="M45 4.49867C43.3444 5.26241 41.565 5.77676 39.6975 6.00861C41.6044 4.82209 43.0687 2.94196 43.7569 0.701395C41.9737 1.80025 39.9975 2.59906 37.8937 3.02963C36.2119 1.16509 33.81 0 31.155 0C25.1944 0 20.8144 5.77871 22.1606 11.7776C14.49 11.3782 7.6875 7.55947 3.13313 1.75543C0.714375 6.06706 1.87875 11.7074 5.98875 14.5637C4.4775 14.513 3.0525 14.0824 1.80937 13.3635C1.70812 17.8076 4.77375 21.9653 9.21375 22.8908C7.91438 23.2571 6.49125 23.3428 5.04375 23.0544C6.2175 26.8654 9.62625 29.6378 13.6687 29.7157C9.7875 32.8779 4.8975 34.2904 0 33.6903C4.08562 36.4121 8.94 38 14.1525 38C31.2938 38 40.9781 22.957 40.3931 9.46493C42.1969 8.11085 43.7625 6.42166 45 4.49867V4.49867Z" fill="#EAEAEA" fill-opacity="0.32"/>
</svg>
