<svg width="32" height="32" viewBox="0 0 32 32" fill="none" xmlns="http://www.w3.org/2000/svg">
<path d="M16 0C7.164 0 0 7.04559 0 15.7355C0 24.4255 7.164 31.4711 16 31.4711C24.836 31.4711 32 24.4255 32 15.7355C32 7.04559 24.836 0 16 0ZM21.9213 22.1504C19.1187 22.3392 12.876 22.3392 10.0773 22.1504C7.04267 21.9458 6.68933 20.485 6.66667 15.7355C6.68933 10.9768 7.04667 9.52524 10.0773 9.32068C12.876 9.13186 19.12 9.13186 21.9213 9.32068C24.9573 9.52524 25.3093 10.986 25.3333 15.7355C25.3093 20.4942 24.9533 21.9458 21.9213 22.1504ZM13.3333 12.6645L19.8893 15.7303L13.3333 18.8066V12.6645Z" fill="white"/>
</svg>
